<?xml version="1.0" encoding="utf-8"?>
<!DOCTYPE svg PUBLIC "-//W3C//DTD SVG 1.1//EN" "http://www.w3.org/Graphics/SVG/1.1/DTD/svg11.dtd">
<svg version="1.1" id="VARG" xmlns="http://www.w3.org/2000/svg" xmlns:xlink="http://www.w3.org/1999/xlink" x="0px" y="0px"
 width="220px" height="217px" viewBox="0 0 220 217" enable-background="new 0 0 220 217" xml:space="preserve">
<g>
<path fill="#CE1141" d="M201.444,108.856c11.563-10,16.054-26.677,9.895-41.543c-6.159-14.863-21.123-23.482-36.369-22.375
c1.106-15.25-7.516-30.215-22.382-36.372c-14.862-6.16-31.541-1.672-41.541,9.891c-10-11.563-26.675-16.051-41.542-9.891
C54.639,14.724,46.02,29.689,47.126,44.936c-15.248-1.104-30.213,7.515-36.371,22.381c-6.157,14.865-1.671,31.54,9.892,41.54
c-11.563,10.003-16.051,26.681-9.892,41.547c6.155,14.859,21.112,23.479,36.357,22.378c-1.104,15.252,7.515,30.224,22.389,36.386
c14.871,6.159,31.551,1.668,41.556-9.9c10,11.556,26.673,16.038,41.533,9.884c14.863-6.159,23.483-21.123,22.379-36.369
c15.247,1.104,30.213-7.516,36.372-22.381C217.499,135.534,213.008,118.86,201.444,108.856z"/>
<path fill="#FFFFFF" d="M195.01,108.856c10.926-9.217,15.201-24.813,9.452-38.694s-19.803-21.887-34.045-20.677
c1.21-14.242-6.797-28.292-20.677-34.042c-13.881-5.749-29.478-1.474-38.692,9.452c-9.217-10.929-24.812-15.203-38.694-9.452
c-13.88,5.75-21.887,19.802-20.677,34.044c-14.242-1.21-28.294,6.797-34.046,20.674c-5.749,13.883-1.475,29.483,9.454,38.694
c-10.926,9.218-15.203,24.814-9.454,38.698c5.752,13.877,19.806,21.886,34.046,20.677c-1.21,14.242,6.797,28.294,20.677,34.044
c13.882,5.75,29.479,1.475,38.694-9.454c9.214,10.926,24.811,15.204,38.695,9.454c13.877-5.752,21.887-19.805,20.677-34.044
c14.242,1.207,28.293-6.803,34.042-20.68C210.211,133.671,205.938,118.074,195.01,108.856z"/>
<path fill="#FFF200" d="M192.22,108.856c9.219-9.367,12.506-23.723,7.173-36.596c-5.332-12.873-17.804-20.701-30.95-20.804
c-0.103-13.141-7.931-25.613-20.802-30.944c-12.873-5.333-27.226-2.047-36.593,7.172c-9.365-9.219-23.72-12.505-36.595-7.172
c-12.878,5.333-20.704,17.804-20.804,30.947c-13.144,0.103-25.615,7.929-30.946,20.801c-5.333,12.875-2.049,27.231,7.172,36.599
c-9.218,9.368-12.505,23.724-7.175,36.594c5.334,12.873,17.809,20.701,30.952,20.805c0.102,13.143,7.931,25.616,20.804,30.949
c12.872,5.331,27.228,2.046,36.595-7.175c9.365,9.219,23.718,12.506,36.591,7.175c12.874-5.333,20.702-17.806,20.805-30.952
c13.144-0.104,25.613-7.929,30.947-20.802C204.726,132.581,201.439,118.225,192.22,108.856z"/>
<path fill="#CE1141" d="M179.368,93.365c-1.063,2.554,0.651,3.907,3.182,3.5c0.011,1.744-3.262,3.1-5.34,3.572
c-1.817,0.413-4.323,0.613-5.338-0.991l0,0l-1.271-2.015l0,0c-3.251,2.441-9.338,4.475-12.692,1.342
c-3.463-3.235-1.867-8.002-0.919-11.029c-5.906,4.702-10.865,13.494-19.446,12.02c-1.495-0.26-2.402-1.45-3.359-2.474
c-3.464,5.689-4.768,14.65-12.835,16.086c-2.649,0.473-5.583,0.176-7.282-1.806c-0.209-1.223,1.549-0.51,2.333-0.846
c4.567-1.958,6.427-8.998,8.344-13.386c-3.145,2.19-8.125,4.11-11.912,1.93c-1.145-0.658-2.155-1.922-2.357-1.787
c-2.803,1.869-7.702,3.519-11.116,1.787c-1.183-0.602-1.695-1.874-2.154-3.005c-3.714,2.226-8.742,5.012-13.049,2.19
c-2.055-1.348-2.83-3.954-1.906-6.114l0,0l5.762-13.508l0,0c0.995-2.33-3.359-2.74-4.242-0.777l0,0l-9.369,20.787l-9.352-0.005
l1.556-3.792l0,0c-5.704,3.878-11.202,6.49-18.012,3.903c-5.422-2.056-8.56-7.802-8.769-13.292
c-0.392-10.318,4.629-19.664,13.292-25.88c5.477-3.93,13.637-6.223,19.8-2.158c2.25,1.485,3.584,3.999,3.393,6.575
c-0.233,3.119-2.094,6.135-4.984,7.672c-2.247,1.199-7.777,0.983-8.274-2.154c2.633-1.502,6.775-4.032,5.515-7.672
c-0.376-1.092-1.488-1.519-2.439-1.591c-5.536-0.427-9.697,5.301-12.092,9.581c-3.235,5.781-6.748,13.861-2.614,20.399
c1.704,2.695,5.02,3.395,8.271,2.83c4.064-0.704,8.911-2.662,10.71-6.621l0,0l13.735-30.252h9.141l-6.632,15.438l0,0
c2.614-1.688,6.651-4.69,10.735-2.288c3.945,2.323,0.707,7.129-0.6,10.111l0,0l-4.243,9.688l0,0
c-0.372,0.849-0.577,1.899-0.178,2.828c1.126,2.611,5.007,0.65,5.763-1.062l0,0l9.576-21.714h9.208l-9.273,20.971l0,0
c-0.275,0.627-0.427,1.559-0.07,2.229c0.454,0.851,1.517,1.066,2.333,0.778c1.634-0.579,3.197-4.894,3.251-5.02l0,0l8.293-18.957
h9.411l-9.356,21.22l0,0c-0.337,0.759-0.351,1.739,0.174,2.474c0.431,0.61,1.139,0.947,1.839,0.851
c1.571-0.222,3.219-1.091,3.923-2.687l0,0l9.646-21.857h8.732l-0.593,1.668l0,0c2.927-1.156,6.709-3.065,9.545-0.746
c3.818,3.128,1.454,9.509,0.391,13.362c6.109-3.892,10.008-16.502,20.961-14.385c1.337,0.256,2.654,1.447,3.254,2.757l0,0
l1.104-2.657h9.206l0,0C189.679,69.388,182.68,85.406,179.368,93.365L179.368,93.365z"/>
<path fill="#FFF200" d="M170.281,92.765c-0.534,1.215-2.187,1.793-3.604,1.167c-0.422-0.187-0.918-0.67-0.921-1.167
c-0.03-4.28,2.165-8.139,4.032-11.844c1.007-2.006,2.281-4.936,4.843-5.198c1.967-0.202,2.493,1.521,1.84,3.005l0,0L170.281,92.765
L170.281,92.765z"/>
<path fill="#FFF200" d="M138.959,93.753c-0.886,0.479-2.19,0.038-2.406-0.918c-0.194-0.859,0.271-1.825,0.638-2.651l0,0
l5.692-12.87l0,0c0.824-1.864,4.016-2.085,4.278-0.424C147.787,80.851,142.485,91.847,138.959,93.753L138.959,93.753z"/>
<path fill="#CE1141" d="M182.728,117.655c-3.289,1.521-5.171,4.958-4.845,8.592c0.662,7.324,2.703,16.46-3.748,21.99
c-3.701,3.173-8.598,4.551-13.362,3.325c-2.234-0.577-4.525-2.52-4.845-4.918c-0.213-1.598,0.113-3.178,0.988-4.345
c0.907-1.209,2.215-2.044,3.69-2.151c0.574-0.041,1.452,0.04,2.073,0.561c-1.242,1.176-2.388,3.187-1.591,4.912
c0.446,0.959,1.415,1.47,2.441,1.416c0.991-0.052,1.991-0.471,2.581-1.311c2.506-3.57,2.056-8.477,3.249-12.618
c0.786-2.723,1.788-5.32,2.762-7.921c0.125-0.337-0.035-0.719-0.358-0.778c-1.075-0.196-2.003,0.964-2.579,1.594l0,0
l-17.289,18.875l0,0c-3.715,4.056-8.33,7.857-14.174,6.684c-1.902-0.383-3.467-1.769-4.28-3.607l0,0l-5.27,11.496l0,0
c3.163,1.479,9.518,2.792,13.13,3.091c5.452,0.457,11.01,0.603,16.286-0.375c2.132-0.392,4.173-1.129,6.011-2.333
c-0.243,1.733-1.583,3.688-1.769,3.927c-9.829,12.438-26.69,10.181-40.587,7.245c-3.076,3.787-6.697,6.94-10.923,8.875
c-7.122,3.258-16.602,3.229-23.299-0.846c-3.349-2.042-5.293-5.644-5.021-9.689c0.365-5.436,5.315-9.904,10.006-11.527
c8.503-2.937,18.319-2.495,26.974-0.659l0,0l3.477-7.61l0,0c-3.324,1.836-7.988,4.041-11.817,2.084
c-1.302-0.666-1.664-2.017-2.263-3.145c-3.111,1.836-6.344,4.096-10.324,3.25c-2.549-0.542-3.883-2.159-4.355-4.565
c-3.679,3.146-8.547,6.245-13.465,4.143c-2.02-0.867-2.755-3.001-2.755-5.021c0-1.879,0.576-3.529,1.343-5.269l0,0l6.011-13.612
l0,0c1.377-3.122-3.654-3.513-4.739-1.059l0,0L69.168,151.06l-10.135-0.027l2.271-5.101l0,0c-6.173,4.479-14.15,9.932-22.964,4.531
c-7.62-4.665-8.125-15.039-6.014-23.051c2.769-10.484,12.575-20.229,23.302-22.698c4.938-1.136,10.658-0.672,14.001,3.427
c1.785,2.197,2.185,5.369,1.447,8.1c-0.607,2.254-2.692,4.372-4.844,5.341c-2.825,1.266-8.498,1.445-9.298-2.444
c1.555-0.305,3.256-1.126,4.525-2.474c1.103-1.164,1.945-2.902,1.237-4.596c-0.567-1.356-1.982-2.172-3.5-2.018
c-5.763,0.589-9.746,6.093-12.762,10.538c-3.109,4.582-4.578,10.011-4.421,15.946c0.089,3.331,1.663,6.838,4.915,8.168
c6.691,2.738,13.394-2.144,18.13-7.163l0,0l15.032-33.676l9.911-0.04l-6.411,14.999l0,0c3.433-2.247,8.047-4.429,11.949-1.661
c1.548,1.094,1.81,3.273,1.24,5.021c-2.155,6.577-5.611,12.668-8.168,19.091c-0.367,0.927-0.537,1.915,0,2.685
c0.523,0.751,1.482,0.977,2.403,0.745c1.483-0.375,2.987-1.48,3.608-2.899l0,0l11.013-25.149h9.846L105.23,140.53l0,0
c-0.267,0.627-0.313,1.623,0.07,2.193c0.426,0.632,1.167,1.125,1.839,1.058c1.059-0.107,2.125-0.635,2.582-1.66l0,0l11.247-25.468
h10.024l-11.34,25.468l0,0c-0.299,0.678-0.202,1.355,0.108,2.015c0.325,0.686,1.024,0.938,1.734,0.921
c1.412-0.032,3.144-0.405,3.778-1.843l0,0l11.744-26.479h9.117l0,0c0,0-0.223,1.337-0.319,1.838
c2.793-1.944,6.772-3.939,10.186-1.909c4.832,2.885,2.11,13.03,1.833,14.18c5.881-3.489,12.223-15.998,21.945-14.772
C180.564,116.173,181.823,116.548,182.728,117.655L182.728,117.655z"/>
<path fill="#FFF200" d="M91.688,175.354c-2.881-1.685-3.222-5.508,0.073-7.107c3.356-1.628,7.361-1.281,11.028-0.991
c3.052,0.242,6.012,0.921,8.874,1.769C107.693,175.882,98.974,179.607,91.688,175.354L91.688,175.354z"/>
<path fill="#FFF200" d="M140.62,142.863c-0.889,1.367-4.666,2.106-4.666,0l0,0v-1.166l7.104-15.946l0,0
c0.437-0.982,1.491-1.367,2.511-1.485c0.813-0.092,1.558,0.441,1.909,1.061c0.425,0.759,0.328,1.951,0.07,2.758
C145.904,133.224,143.406,138.557,140.62,142.863L140.62,142.863z"/>
<path fill="#CE1141" d="M126.07,173.535c1.168,0,2.304,0.281,3.395,0.845c1.096,0.56,2.006,1.416,2.743,2.563
c0.732,1.15,1.099,2.431,1.099,3.833c0,1.992-0.709,3.696-2.125,5.114c-1.42,1.417-3.125,2.127-5.111,2.127
c-1.999,0-3.706-0.708-5.12-2.116c-1.416-1.413-2.123-3.122-2.123-5.125c0-1.397,0.368-2.669,1.092-3.812
c0.728-1.145,1.641-2,2.727-2.57C123.736,173.82,124.876,173.535,126.07,173.535L126.07,173.535z M126.078,174.956
c-1.559,0-2.915,0.555-4.075,1.669c-1.158,1.109-1.739,2.498-1.739,4.151c0,1.61,0.568,2.991,1.707,4.125
c1.137,1.14,2.506,1.707,4.107,1.707c1.599,0,2.97-0.569,4.107-1.717c1.145-1.14,1.715-2.515,1.715-4.114
c0-1.653-0.581-3.042-1.739-4.151C129,175.511,127.639,174.956,126.078,174.956L126.078,174.956z M122.797,184.649v-7.68h1.562l0,0
c1.566,0,2.565,0.021,2.983,0.072c0.422,0.054,0.808,0.269,1.16,0.648c0.35,0.38,0.525,0.867,0.525,1.459
c0,0.574-0.188,1.053-0.569,1.43c-0.384,0.381-0.883,0.619-1.501,0.71c0.27,0.092,0.499,0.229,0.686,0.411
c0.184,0.184,0.499,0.65,0.94,1.398l0,0l0.91,1.55h-1.93l-0.64-1.244l0,0c-0.384-0.754-0.719-1.257-0.999-1.518
c-0.282-0.259-0.667-0.392-1.157-0.392l0,0h-0.407v3.154H122.797L122.797,184.649z M124.358,180.286h0.632l0,0
c0.739,0,1.239-0.02,1.487-0.054c0.252-0.035,0.462-0.143,0.635-0.324c0.172-0.185,0.259-0.411,0.259-0.681
c0-0.271-0.095-0.5-0.278-0.678c-0.186-0.178-0.407-0.283-0.67-0.315c-0.261-0.033-0.74-0.046-1.433-0.046l0,0h-0.632V180.286
L124.358,180.286z"/>
<path fill="#A69256" d="M213.877,66.263c-6.208-14.987-20.745-24.09-36.051-24.188c-0.094-15.303-9.198-29.836-24.184-36.048
c-14.991-6.206-31.704-2.365-42.595,8.388C100.156,3.663,83.443-0.178,68.455,6.03c-14.991,6.209-24.093,20.742-24.19,36.045
c-15.305,0.1-29.838,9.203-36.047,24.19c-6.208,14.987-2.365,31.7,8.388,42.594c-10.753,10.892-14.593,27.606-8.388,42.594
c6.209,14.988,20.742,24.087,36.05,24.186c0.094,15.306,9.197,29.842,24.188,36.05c14.989,6.208,31.705,2.366,42.595-8.388
c10.889,10.753,27.602,14.593,42.592,8.385c14.986-6.208,24.087-20.742,24.184-36.048c15.306-0.096,29.844-9.197,36.051-24.186
c6.208-14.99,2.366-31.702-8.387-42.599C216.243,97.963,220.085,81.25,213.877,66.263z M208.806,149.353
c-6.146,14.833-21.774,22.946-36.983,20.279c2.665,15.209-5.446,30.843-20.28,36.985c-14.839,6.144-31.627,0.827-40.496-11.812
c-8.868,12.638-25.657,17.955-40.492,11.812c-14.836-6.143-22.945-21.773-20.28-36.982c-15.213,2.667-30.843-5.446-36.987-20.279
c-6.146-14.839-0.832-31.628,11.812-40.499C12.459,99.988,7.143,83.203,13.289,68.367c6.144-14.836,21.777-22.948,36.987-20.28
c-2.671-15.212,5.444-30.842,20.28-36.985c14.835-6.148,31.626-0.832,40.494,11.81c8.869-12.641,25.654-17.958,40.491-11.81
c14.839,6.144,22.948,21.773,20.28,36.985c15.208-2.668,30.842,5.444,36.985,20.277c6.143,14.836,0.827,31.624-11.812,40.492
C209.633,117.73,214.949,134.517,208.806,149.353z"/>
</g>
</svg>
